<?xml version="1.0" encoding="UTF-8" standalone="no"?>
<!DOCTYPE svg PUBLIC "-//W3C//DTD SVG 1.1//EN" "http://www.w3.org/Graphics/SVG/1.1/DTD/svg11.dtd">
<svg version="1.1" xmlns="http://www.w3.org/2000/svg" xmlns:xlink="http://www.w3.org/1999/xlink" preserveAspectRatio="xMidYMid meet" viewBox="0 0 640 640" width="640" height="640"><defs><path d="M176.27 538.31C106.3 468.34 94.42 361.1 147.39 277.51C162.32 253.95 281.76 65.48 296.69 41.92C301.43 34.44 308.8 29.24 317.44 27.3C326.09 25.38 334.98 26.9 342.45 31.65C346.56 34.25 350.11 37.8 352.71 41.92C367.64 65.48 487.08 253.95 502.01 277.51C554.99 361.1 543.11 468.34 473.14 538.31C432.22 579.23 378.46 599.69 324.7 599.69C270.95 599.69 217.19 579.23 176.27 538.31ZM323.1 52.56C321.21 52.98 319.59 54.13 318.55 55.77C303.62 79.33 184.18 267.8 169.25 291.36C122.81 364.65 133.22 458.67 194.57 520.01C266.32 591.77 383.08 591.75 454.84 520.01C516.18 458.66 526.59 364.63 480.15 291.36C465.22 267.8 345.78 79.33 330.85 55.77C330.85 55.76 330.84 55.75 330.84 55.74C330.27 54.84 329.51 54.09 328.61 53.52C327.43 52.77 326.08 52.38 324.72 52.38C324.18 52.38 323.64 52.44 323.1 52.56Z" id="c2xXg8gAE9"></path><path d="M407.71 477.6C402.66 472.55 402.66 464.36 407.71 459.3C446.84 420.16 453.47 360.2 423.85 313.46C420.02 307.42 421.82 299.43 427.86 295.6C433.9 291.78 441.9 293.57 445.71 299.61C481.87 356.63 473.77 429.83 426.01 477.6C423.48 480.13 420.17 481.39 416.86 481.39C413.55 481.39 410.24 480.13 407.71 477.6Z" id="gs6FyXUIQ"></path></defs><g><g><g><use xlink:href="#c2xXg8gAE9" opacity="1" fill="#1d7a96" fill-opacity="1"></use><g><use xlink:href="#c2xXg8gAE9" opacity="1" fill-opacity="0" stroke="#000000" stroke-width="1" stroke-opacity="0"></use></g></g><g><use xlink:href="#gs6FyXUIQ" opacity="1" fill="#1d7a96" fill-opacity="1"></use><g><use xlink:href="#gs6FyXUIQ" opacity="1" fill-opacity="0" stroke="#000000" stroke-width="1" stroke-opacity="0"></use></g></g></g></g></svg>